<svg xmlns="http://www.w3.org/2000/svg" viewBox="0 0 39 36" width="30" height="28">
	<defs>
		<clipPath clipPathUnits="userSpaceOnUse" id="cp1">
			<path d="M-457 -5542L4793 -5542L4793 1883L-457 1883L-457 -5542Z" />
		</clipPath>
	</defs>
	<style>
		tspan { white-space:pre }
		.shp0 { fill: none } 
		.shp1 { fill: #b2dc8f } 
	</style>
	<g id="Layer">
		<g id="id2">
			<g id="bg-id2">
			</g>
			<g id="bo-id2">
			</g>
		</g>
	</g>
	<g id="Layer">
		<g id="Layer">
			<g id="container-id1">
				<g id="Clip-Path: id1" clip-path="url(#cp1)">
					<g id="id1">
						<g id="Layer">
							<g id="Layer">
								<g id="id3">
									<path id="Layer" class="shp0" d="M0.5 0L39 0L39 35.75L0.5 35.75L0.5 0Z" />
									<path id="Layer" fill-rule="evenodd" class="shp1" d="M9.25 15.5L21.75 27L38.75 0.25L20.75 20.5L8.75 14.75L9.25 15.5ZM30.25 15.75C30.5 16.75 30.75 18 30.75 19.25C30.75 20.25 30.5 21.5 30.25 22.75C30 24 29.5 25 29 26C28.25 27 27.5 28 26.75 29C25.75 29.75 24.75 30.5 23.75 31.25C22.75 31.75 21.75 32.25 20.5 32.5C19.25 32.75 18 33 17 33C15.75 33 14.5 32.75 13.25 32.5C12 32.25 11 31.75 10 31.25C9 30.5 8 29.75 7 29C6.25 28 5.5 27 4.75 26C4.25 25 3.75 24 3.5 22.75C3.25 21.5 3 20.25 3 19.25C3 18 3.25 16.75 3.5 15.5C3.75 14.25 4.25 13.25 4.75 12.25C5.5 11.25 6.25 10.25 7 9.25C8 8.5 9 7.75 10 7C11 6.5 12 6 13.25 5.75C14.5 5.5 15.75 5.25 17 5.25C18 5.25 19.25 5.5 20.5 5.75C21.75 6 22.75 6.5 23.75 7C24.75 7.75 25.75 8.5 26.75 9.25C27 9.75 27.5 10.25 28 10.75L29.5 8.75C29.25 8.25 28.75 8 28.5 7.5C27.5 6.5 26.25 5.75 25 5C23.75 4.25 22.5 3.75 21 3.25C19.75 3 18.25 2.75 17 2.75C15.5 2.75 14 3 12.75 3.25C11.25 3.75 10 4.25 8.75 5C7.5 5.75 6.25 6.5 5.25 7.5C4.25 8.5 3.5 9.75 2.75 11C2 12.25 1.5 13.5 1 15C0.75 16.25 0.5 17.75 0.5 19.25C0.5 20.5 0.75 22 1 23.25C1.5 24.75 2 26 2.75 27.25C3.5 28.5 4.25 29.75 5.25 30.75C6.25 31.75 7.5 32.5 8.75 33.25C10 34 11.25 34.5 12.75 35C14 35.25 15.5 35.5 17 35.5C18.25 35.5 19.75 35.25 21 35C22.5 34.5 23.75 34 25 33.25C26.25 32.5 27.5 31.75 28.5 30.75C29.5 29.75 30.25 28.5 31 27.25C31.75 26 32.25 24.75 32.75 23.25C33 22 33.25 20.5 33.25 19.25C33.25 17.75 33 16.25 32.75 15C32.5 14.25 32.25 13.5 32 13L30.25 15.75Z" />
								</g>
							</g>
						</g>
					</g>
				</g>
			</g>
		</g>
	</g>
</svg>