<svg xmlns="http://www.w3.org/2000/svg" viewBox="0 0 266 248" width="90" height="84">
	<defs>
		<clipPath clipPathUnits="userSpaceOnUse" id="cp1">
			<path d="M-3274 -4441L1976 -4441L1976 2984L-3274 2984L-3274 -4441Z" />
		</clipPath>
	</defs>
	<style>
		tspan { white-space:pre }
		.shp0 { fill: none } 
		.shp1 { fill: #b2dc8f } 
	</style>
	<g id="Layer">
		<g id="id2">
			<g id="bg-id2">
			</g>
			<g id="bo-id2">
			</g>
		</g>
	</g>
	<g id="Layer">
		<g id="Layer">
			<g id="container-id1">
				<g id="Clip-Path: id1" clip-path="url(#cp1)">
					<g id="id1">
						<g id="Layer">
							<g id="Layer">
								<g id="id3">
									<path id="Layer" class="shp0" d="M0.25 0.5L265.75 0.5L265.75 247.75L0.25 247.75L0.25 0.5Z" />
									<path id="Layer" fill-rule="evenodd" class="shp1" d="M186.25 47.75C181.75 44 177 40.75 172 37.75C164 33 155.5 29.75 146.75 27.25C138 25 129 23.75 119.75 23.75C110.75 23.75 101.75 25 93 27.25C84.25 29.75 75.75 33 67.75 37.75C60 42.25 52.75 47.75 46.25 54.25C39.75 60.75 34.25 68 29.75 75.75C25 83.75 21.75 92.25 19.25 101C17 109.75 15.75 118.75 15.75 127.75C15.75 137 17 146 19.25 154.75C21.75 163.5 25 172 29.75 180C34.25 187.75 39.75 195 46.25 201.5C52.75 208 60 213.5 67.75 218C75.75 222.5 84.25 226 93 228.5C101.75 230.75 110.75 232 119.75 232C129 232 138 230.75 146.75 228.5C155.5 226 164 222.5 172 218C179.75 213.5 187 208 193.5 201.5C200 195 205.5 187.75 210 180C214.5 172 218 163.5 220.5 154.75C222.75 146 224 137 224 127.75C224 118.75 222.75 109.75 220.5 101C218 92.25 214.5 83.75 210 75.75C209 74 207.75 72 206.5 70.25L218.75 60.5C220.25 63 222 65.5 223.5 68C228.75 77.25 232.75 86.75 235.5 97C238 107 239.5 117.25 239.5 127.75C239.5 138.25 238 148.75 235.5 158.75C232.75 168.75 228.75 178.5 223.5 187.75C218.25 196.75 211.75 205 204.5 212.5C197 219.75 188.75 226.25 179.75 231.5C170.5 236.75 160.75 240.75 150.75 243.5C140.75 246 130.25 247.5 119.75 247.5C109.25 247.5 99 246 89 243.5C78.75 240.75 69.25 236.75 60 231.5C51 226.25 42.75 219.75 35.25 212.5C28 205 21.5 196.75 16.25 187.75C11 178.5 7 168.75 4.25 158.75C1.75 148.75 0.25 138.25 0.25 127.75C0.25 117.25 1.75 107 4.25 97C7 86.75 11 77.25 16.25 68C21.5 59 28 50.75 35.25 43.25C42.75 36 51 29.5 60 24.25C69.25 19 78.75 15 89 12.25C99 9.75 109.25 8.25 119.75 8.25C130.25 8.25 140.75 9.75 150.75 12.25C160.75 15 170.5 19 179.75 24.25C186.5 28.25 192.75 32.75 198.5 37.75L186.25 47.75ZM165.25 64.75C163 63.25 161 62 158.75 60.75C152.75 57.25 146.5 54.75 140 53C139.75 52.75 139.25 52.75 139 52.75L133.25 45.5C132.5 44.75 131.75 44.25 131 43.75C129.75 43 128.5 42.75 127.25 42.75C125.75 42.75 124.5 43 123.25 43.75C122 44.25 121.25 45.25 120.5 46.5C120 47.5 119.5 48.5 119.5 49.75L119.5 50.25C112.75 50.25 106.25 51.25 99.75 53C93.25 54.75 87 57.25 81 60.75C75.25 64 69.75 68.25 65 73C60.25 77.75 56 83.25 52.75 89C49.25 95 46.75 101.25 45 107.75C43.25 114.25 42.25 121 42.25 127.75C42.25 134.75 43.25 141.5 45 148C46.75 154.5 49.25 160.75 52.75 166.75C56 172.5 60.25 178 65 182.75C69.75 187.5 75.25 191.75 81 195C87 198.5 93.25 201 99.75 202.75C106.25 204.5 113 205.5 119.75 205.5C126.75 205.5 133.5 204.5 140 202.75C146.5 201 152.75 198.5 158.75 195C164.5 191.75 170 187.5 174.75 182.75C179.5 178 183.75 172.5 187 166.75C190.5 160.75 193 154.5 194.75 148C196.25 143 197 137.75 197.25 132.5C197.5 132.25 197.75 131.75 198 131.5C198.75 130.25 199 129 199 127.5C199 126.25 198.75 125 198 123.75C197.75 123.5 197.5 123 197.25 122.75C197 117.5 196 112.5 194.75 107.75C193 101.25 190.5 95 187 89C186.75 88.25 186.25 87.75 185.75 87L198 77.25C198.75 78.5 199.75 80 200.5 81.25C204.5 88.5 207.75 96 209.75 103.75C212 111.5 213 119.75 213 127.75C213 136 212 144.25 209.75 152C207.75 159.75 204.5 167.25 200.5 174.5C196.5 181.5 191.5 188 185.75 193.75C180 199.5 173.5 204.5 166.5 208.5C159.25 212.5 151.75 215.75 144 217.75C136.25 220 128 221 119.75 221C111.75 221 103.5 220 95.75 217.75C88 215.75 80.5 212.5 73.25 208.5C66.25 204.5 59.75 199.5 54 193.75C48.25 188 43.25 181.5 39.25 174.5C35.25 167.25 32 159.75 30 152C27.75 144.25 26.75 136 26.75 127.75C26.75 119.75 27.75 111.5 30 103.75C32 96 35.25 88.5 39.25 81.25C43.25 74.25 48.25 67.75 54 62C59.75 56.25 66.25 51.25 73.25 47.25C80.5 43.25 88 40 95.75 38C103.5 35.75 111.75 34.75 119.75 34.75C128 34.75 136.25 35.75 144 38C151.75 40 159.25 43.25 166.5 47.25C170.25 49.5 174 52 177.5 54.75L165.25 64.75ZM117 76.25C113.5 76.5 110 77 106.5 78C102.25 79.25 98 81 94 83.25C90 85.5 86.5 88.25 83.25 91.25C80.25 94.5 77.5 98 75.25 102C73 106 71.25 110.25 70 114.5C68.75 118.75 68.25 123.25 68.25 127.75C68.25 132.5 68.75 137 70 141.25C71.25 145.5 73 149.75 75.25 153.75C77.5 157.5 80.25 161.25 83.25 164.25C86.5 167.5 90 170.25 94 172.5C98 174.75 102.25 176.5 106.5 177.75C110.75 179 115.25 179.5 119.75 179.5C124.5 179.5 129 179 133.25 177.75C137.5 176.5 141.75 174.75 145.75 172.5C149.5 170.25 153.25 167.5 156.25 164.25C159.5 161.25 162.25 157.5 164.5 153.75C166.75 149.75 168.5 145.5 169.75 141.25L171.25 133.75L186.5 135C186.25 138.5 185.5 142 184.75 145.25C183.25 150.75 181 156.25 178 161.5C175 166.5 171.5 171.25 167.25 175.25C163.25 179.5 158.5 183 153.5 186C148.25 189 142.75 191.25 137.25 192.75C131.5 194.25 125.75 195 119.75 195C114 195 108.25 194.25 102.5 192.75C96.75 191.25 91.5 189 86.25 186C81.25 183 76.5 179.5 72.5 175.25C68.25 171.25 64.75 166.5 61.75 161.5C58.75 156.25 56.5 150.75 55 145.25C53.5 139.5 52.75 133.75 52.75 127.75C52.75 122 53.5 116.25 55 110.5C56.5 104.75 58.75 99.5 61.75 94.25C64.75 89.25 68.25 84.5 72.5 80.5C76.5 76.25 81.25 72.75 86.25 69.75C91.5 66.75 96.75 64.5 102.5 63C107.75 61.75 113 60.75 118.5 60.75L117 76.25ZM265.5 12L143.5 113.25L179.5 116.25L188.75 127.75L190.5 129.75L119.75 124.25L126.25 52.5L138 66.5L135 101L256.25 0.5L265.5 12ZM112.75 121.5C112.5 121.5 112.5 121.75 112.5 122C112.5 123.5 113 124.75 113.75 126C114.25 127.25 115.25 128.25 116.5 128.75C117.5 129.5 118.5 129.75 119.75 129.75L155.75 132.5C155 137.25 153.5 141.75 151.25 146C148 151.5 143.5 156 138 159.25C132.5 162.25 126.25 164 120 164C113.5 164 107.5 162.25 102 159.25C96.5 156 92 151.5 88.75 146C85.5 140.5 84 134.25 84 128C84 121.5 85.5 115.5 88.75 110C92 104.5 96.5 100 102 96.75C106 94.25 110.75 92.75 115.5 92.25L112.75 121.5ZM180.75 106.25L166.25 105C166 104.5 165.75 104 165.25 103.5L177.5 93.5C177.75 93.75 177.75 94 178 94.25C180.25 98.25 182.25 102.75 183.75 107C182.75 106.75 181.75 106.25 180.75 106.25ZM145 81.25L146.25 66.25C148.75 67.25 151 68.5 153.5 69.75C154.5 70.25 155.5 71 156.75 71.75L145 81.25Z" />
								</g>
							</g>
						</g>
					</g>
				</g>
			</g>
		</g>
	</g>
</svg>