<svg xmlns="http://www.w3.org/2000/svg" viewBox="0 0 238 238" width="90" height="90">
	<defs>
		<clipPath clipPathUnits="userSpaceOnUse" id="cp1">
			<path d="M-2956 -4461L2294 -4461L2294 2964L-2956 2964L-2956 -4461Z" />
		</clipPath>
	</defs>
	<style>
		tspan { white-space:pre }
		.shp0 { fill: none } 
		.shp1 { fill: #b2dc8f } 
	</style>
	<g id="Layer">
		<g id="id2">
			<g id="bg-id2">
			</g>
			<g id="bo-id2">
			</g>
		</g>
	</g>
	<g id="Layer">
		<g id="Layer">
			<g id="container-id1">
				<g id="Clip-Path: id1" clip-path="url(#cp1)">
					<g id="id1">
						<g id="Layer">
							<g id="Layer">
								<g id="id3">
									<path id="Layer" class="shp0" d="M0.25 0.25L238 0.25L238 238L0.25 238L0.25 0.25Z" />
									<path id="Layer" fill-rule="evenodd" class="shp1" d="M225.5 139C220.25 143.75 213.5 148.25 206 152C198.5 156 190 159.5 180.75 162.5L180.5 162.5C162.5 167.75 141.75 170.5 120.5 170.5C99.5 170.5 78.25 167.5 60.25 161.75C50.75 159 42.5 155.5 35 151.5C27.5 147.5 21 143 15.5 138C10.5 133 6.5 128.25 3.75 123C3.5 122.75 3.5 122.25 3.5 121.75C3.5 121.5 3.5 121 3.75 120.75C6.5 115.75 10.25 111.25 15.25 106.75C20.5 101.75 27 97.25 34.5 93.25C42 89.25 50.5 85.75 59.75 83C78.25 77.25 99 74 120.25 74C141.25 74 162 77 180.5 82.25L180.75 82.25C189.75 85 198.25 88.5 205.75 92.5C213.25 96.25 219.75 100.75 225.25 105.75C230.75 110.75 234.75 116.25 237.5 121.75C237.75 122 237.75 122.5 237.75 122.75C237.75 123.25 237.75 123.5 237.5 124C234.75 129 230.75 134 225.75 138.75C225.75 138.75 225.5 138.75 225.5 139ZM120.25 79C99.5 79 79.25 82 61.25 87.5C52.25 90.25 44 93.75 37 97.5C29.75 101.25 23.75 105.75 18.5 110.25C14.5 114 11.25 118 8.75 122C11.25 126.25 14.75 130.25 19 134.25C24 139 30.25 143.25 37.25 147C44.5 151 52.75 154.25 61.75 157C77.25 162 95.5 165 113.75 165.5C111 164.5 108.25 163.25 105.75 161.75C99 158 93.25 152.25 89.5 145.75C85.5 139 83.5 131.25 83.5 123.5C83.5 115.75 85.5 108 89.5 101.25C93.25 94.5 99 89 105.75 85C112 81.25 119.25 79.25 126.5 79C124.5 79 122.25 79 120.25 79ZM179.25 157.75C188.25 155 196.5 151.5 203.75 147.75C211 144 217.25 139.75 222.25 135.25C226.5 131.25 230 127 232.5 122.75C230 118 226.5 113.5 221.75 109.5C216.75 104.75 210.5 100.5 203.25 96.75C196 93 188 89.75 179.25 87C165 82.75 149.25 80.25 133 79.5C139 80 145 82 150.25 85C157 89 162.5 94.5 166.5 101.25C170.5 108 172.5 115.75 172.5 123.5C172.5 131.25 170.5 139 166.5 145.75C162.5 152.25 157 158 150.25 161.75C148.75 162.75 147 163.5 145.25 164.25C157.25 163 168.75 160.75 179.25 157.75ZM106.5 135.75L134.25 132L115.5 149.25L124.5 150L147.25 125L120.25 128.5L139.5 110.25L142.5 118L149 96.75L127.25 102.75L135.25 106L106.5 135.75ZM235.5 144.5C234.5 148.75 233.25 153 232 157L229.75 156.25L227.25 155.25C228.5 151.5 229.75 147.5 230.5 143.5L235.5 144.5ZM225 167.75L227.25 169C225.75 172 224 175.25 222.25 178.25C222 179 221.5 179.75 221.25 180.25L216.75 177.75C217.25 177.25 217.5 176.5 218 176C219.75 173 221.25 170 222.75 166.75L225 167.75ZM211.75 189.5L213.75 191C211.25 194.25 208.5 197.75 205.5 200.75L203.75 199L201.75 197.25C204.75 194.25 207.5 191.25 210 188L211.75 189.5ZM194.5 207.75L196 209.5C192.75 212.25 189.25 215 185.75 217.5L184.25 215.25L183 213.25C186.25 211 189.75 208.5 192.75 205.75L194.5 207.75ZM173.5 221.75L174.5 224C170.75 226 166.75 227.75 162.75 229.5L162 227L161 224.75C164.75 223.25 168.5 221.5 172.25 219.75L173.5 221.75ZM149.75 231L150.5 233.5C146.25 234.75 142 235.5 137.75 236.25L137.5 233.75L137 231.25C141.25 230.75 145.25 229.75 149.25 228.75L149.75 231ZM124.75 235.25L125 237.5C123 237.75 121 237.75 119 237.75C116.5 237.75 114.25 237.75 112 237.5L112 235L112.25 232.5C114.5 232.75 116.75 232.75 119 232.75C120.75 232.75 122.75 232.75 124.75 232.75L124.75 235.25ZM99.5 233.75L99 236C94.75 235.5 90.5 234.5 86.5 233.25L87 231L87.75 228.5C91.75 229.75 95.75 230.5 100 231.25L99.5 233.75ZM75 226.75L74.25 229C70.25 227.5 66.25 225.75 62.5 223.5L63.5 221.5L64.75 219.25C68.5 221.25 72.25 223 76 224.5L75 226.75ZM52.75 214.75L51.25 217C47.75 214.5 44.25 211.75 41 209L42.75 207.25L44.25 205.25C47.5 208 50.75 210.5 54.25 212.75L52.75 214.75ZM33.5 198.5L31.75 200C28.75 197 26 193.75 23.25 190.25L27.25 187.25C29.75 190.5 32.5 193.75 35.25 196.75L33.5 198.5ZM18.25 178.25L16.25 179.5C16 179.25 15.75 178.75 15.5 178.25C13.5 175 11.75 171.5 10.25 168L14.75 166C16.25 169.5 18 172.75 19.75 176C20 176.25 20.25 176.75 20.5 177L18.25 178.25ZM7.75 155.25L5.5 156.25C4.25 152 3 148 2 143.75L7 142.75C7.75 146.75 9 150.75 10.25 154.5L7.75 155.25ZM0.25 105.25C0.75 101 1.5 96.75 2.5 92.5L5 93.25L7.25 93.75C6.5 97.75 5.75 101.75 5.25 105.75L0.25 105.25ZM8.5 81L6 80.25C7.5 76.25 9 72.25 11 68.25L13.25 69.25L15.5 70.5C13.75 74.25 12 78 10.75 81.75L8.5 81ZM19.25 58.25L17 57C19.25 53.25 21.75 49.75 24.5 46.5L26.5 48L28.25 49.5C25.75 52.75 23.5 56 21.25 59.5L19.25 58.25ZM34.75 38.25L33 36.75C36 33.5 39 30.5 42.25 27.75L44 29.75L45.5 31.75C42.5 34.25 39.25 37 36.5 40L34.75 38.25ZM54.25 22.25L52.75 20.25C54.75 18.75 57 17.5 59.25 16.25C60.75 15.25 62.25 14.5 64 13.5L65 15.75L66.25 18C64.75 18.75 63.25 19.5 61.75 20.5C59.5 21.75 57.5 23 55.5 24.25L54.25 22.25ZM76.75 10.5L75.75 8.25C79.75 6.75 84 5.5 88 4.25L88.75 6.75L89.25 9C85.25 10 81.5 11.5 77.5 13L76.75 10.5ZM101.25 4L100.75 1.5C105 1 109.25 0.5 113.75 0.25L113.75 2.75L114 5.25C109.75 5.5 105.5 6 101.5 6.5L101.25 4ZM225.75 71.75L228 70.75C229.75 74.5 231.25 78.5 232.5 82.75L230.25 83.5L227.75 84.25C226.5 80.25 225 76.5 223.25 72.75L225.75 71.75ZM126.75 0.5C131 0.75 135.25 1.25 139.5 2L139 4.5L138.75 7C134.5 6.25 130.5 5.75 126.25 5.5L126.75 0.5ZM151.5 7.25L152.25 5C156.25 6.25 160.5 7.5 164.5 9.25L162.5 13.75C158.75 12.25 154.75 10.75 150.75 9.75L151.5 7.25ZM175 17L176 14.75C177 15.25 177.75 15.75 178.5 16.25C181.5 17.75 184.25 19.75 187.25 21.5L185.75 23.5L184.25 25.75C181.75 23.75 179 22 176 20.5C175.25 20 174.5 19.5 173.75 19.25L175 17ZM195.75 31.5L197.25 29.5C200.5 32.25 203.75 35.25 206.75 38.5L204.75 40.25L203 41.75C200.25 38.75 197.25 36 194 33.25L195.75 31.5ZM215 48.5C217.5 52 219.75 55.5 222 59.25L219.75 60.5L217.75 61.75C215.5 58 213.25 54.75 211 51.5L215 48.5ZM233.25 95.75L235.75 95.25C236.75 99.25 237.25 103.5 237.75 107.75L232.75 108.25C232.25 104.25 231.75 100.25 231 96.25L233.25 95.75ZM15.25 106.75L15.25 106.75L15.25 106.75L17 108.5L15.25 106.75L15.25 106.75ZM225.25 105.75L223.5 107.5L225.25 105.75L225.25 105.75Z" />
								</g>
							</g>
						</g>
					</g>
				</g>
			</g>
		</g>
	</g>
</svg>