<svg xmlns="http://www.w3.org/2000/svg" viewBox="0 0 70 70" width="70" height="70">
	<defs>
		<clipPath clipPathUnits="userSpaceOnUse" id="cp1">
			<path d="M-124.65 -967.39L834.88 -967.39L834.88 389.66L-124.65 389.66L-124.65 -967.39Z" />
		</clipPath>
	</defs>
	<style>
		tspan { white-space:pre }
		.shp0 { fill: none } 
		.shp1 { fill: #b2dc8f } 
	</style>
	<g id="Layer">
		<g id="id2">
			<g id="bg-id2">
			</g>
			<g id="bo-id2">
			</g>
		</g>
	</g>
	<g id="Layer">
		<g id="Layer">
			<g id="container-id1">
				<g id="Clip-Path: id1" clip-path="url(#cp1)">
					<g id="id1">
						<g id="Layer">
							<g id="Layer">
								<g id="id3">
									<path id="Layer" class="shp0" d="M4.11 0.09L65.89 0.09L65.89 103.77L4.11 103.77L4.11 0.09Z" />
									<path id="Layer" fill-rule="evenodd" class="shp1" d="M25.86 103.13L25.95 103.4L26.09 103.72L25.77 103.13L26.09 102.53L25.91 102.94L25.86 103.13ZM40.62 47.98L52.87 44.96C52.96 44.96 53.05 44.96 53.14 44.96C53.32 44.96 53.55 45.01 53.73 45.1C53.83 45.14 53.92 45.23 54.01 45.33L65.52 58.85C65.57 58.9 65.61 58.94 65.66 58.99C65.75 59.17 65.8 59.35 65.8 59.58C65.8 59.77 65.75 59.99 65.66 60.13C65.61 60.27 65.52 60.36 65.43 60.45L57.34 67.3C56.89 67.72 56.29 68.04 55.65 68.22C55.06 68.45 54.42 68.54 53.69 68.54C52.96 68.54 52.13 68.45 51.22 68.22C50.4 68.04 49.44 67.72 48.48 67.35C46.65 66.57 44.69 65.52 42.54 64.11C40.44 62.78 38.24 61.09 35.91 59.17C31.3 55.42 26.55 50.67 22.11 45.46C17.68 40.3 13.75 34.91 10.69 29.7C9.18 27.14 7.9 24.67 6.85 22.43C5.85 20.1 5.07 17.96 4.66 16.04C4.3 14.58 4.16 13.3 4.16 12.15C4.16 11.1 4.3 10.14 4.57 9.37C4.75 8.96 4.93 8.59 5.16 8.22C5.39 7.86 5.67 7.54 5.99 7.27L14.07 0.41C14.12 0.37 14.16 0.32 14.26 0.27C14.39 0.18 14.62 0.14 14.8 0.14C15.03 0.14 15.22 0.18 15.4 0.27C15.49 0.37 15.58 0.41 15.67 0.55L27.23 14.07C27.28 14.12 27.32 14.16 27.37 14.21C27.46 14.39 27.51 14.58 27.51 14.8C27.51 14.94 27.51 15.08 27.42 15.22L22.53 27.23L40.62 47.98ZM20.2 28.01C20.1 27.83 20.06 27.64 20.06 27.42C20.06 27.28 20.06 27.14 20.1 27L25.04 15.03L14.67 2.88L7.49 9C7.31 9.14 7.17 9.32 7.04 9.5C6.95 9.69 6.81 9.92 6.72 10.14C6.53 10.74 6.44 11.38 6.44 12.15C6.44 13.11 6.58 14.26 6.9 15.49C6.9 15.54 6.9 15.54 6.9 15.54C7.31 17.32 8 19.33 8.96 21.48C9.96 23.67 11.19 26.04 12.7 28.56C15.67 33.63 19.51 38.93 23.85 44C28.19 49.07 32.85 53.73 37.38 57.43C39.61 59.26 41.76 60.91 43.77 62.23C45.78 63.51 47.66 64.52 49.3 65.2C50.17 65.57 50.99 65.84 51.72 65.98C52.45 66.16 53.09 66.25 53.69 66.25C54.14 66.25 54.6 66.21 54.97 66.07C55.33 65.93 55.61 65.8 55.88 65.57L63.05 59.45L52.73 47.38L40.48 50.35C40.39 50.4 40.3 50.4 40.21 50.4C40.03 50.4 39.8 50.35 39.66 50.26C39.52 50.17 39.43 50.12 39.34 50.03L20.33 28.19C20.29 28.15 20.24 28.05 20.2 28.01ZM11.7 29.15L10.69 29.7C10.74 29.7 10.74 29.7 10.74 29.7L11.7 29.15ZM62.37 11.38L39.02 30.48L45.83 31.02L47.61 33.22L47.93 33.63L34.45 32.58L35.73 18.96L37.92 21.61L37.38 28.19L60.59 9.18L62.37 11.38ZM4.66 16.04L5.8 15.76L4.66 16.04L4.66 16.04ZM35.91 59.17L36.64 58.3L35.91 59.17L35.91 59.17Z" />
								</g>
							</g>
						</g>
					</g>
				</g>
			</g>
		</g>
	</g>
</svg>