<svg xmlns="http://www.w3.org/2000/svg" viewBox="0 0 70 70" width="70" height="70">
	<defs>
		<clipPath clipPathUnits="userSpaceOnUse" id="cp1">
			<path d="M-251.04 -1213.71L946.03 -1213.71L946.03 479.28L-251.04 479.28L-251.04 -1213.71Z" />
		</clipPath>
	</defs>
	<style>
		tspan { white-space:pre }
		.shp0 { fill: none } 
		.shp1 { fill: #b2dc8f } 
	</style>
	<g id="Layer">
		<g id="id2">
			<g id="bg-id2">
			</g>
			<g id="bo-id2">
			</g>
		</g>
	</g>
	<g id="Layer">
		<g id="Layer">
			<g id="container-id1">
				<g id="Clip-Path: id1" clip-path="url(#cp1)">
					<g id="id1">
						<g id="Layer">
							<g id="Layer">
								<g id="id3">
									<path id="Layer" class="shp0" d="M7.64 0.11L62.59 0.11L62.59 69.94L7.64 69.94L7.64 0.11Z" />
									<path id="Layer" fill-rule="evenodd" class="shp1" d="M61.28 16.13C60.99 17.16 60.59 18.18 60.02 19.15C60.02 19.15 60.02 19.15 60.02 19.21C59.97 19.21 59.97 19.21 59.97 19.27C59.97 19.27 59.91 19.32 59.91 19.38C59.85 19.44 59.8 19.55 59.74 19.61C59.63 19.84 59.51 20.07 59.34 20.35C59 20.92 58.6 21.6 58.2 22.29C57.8 22.97 57.4 23.71 57.06 24.23C56.89 24.51 56.72 24.8 56.55 25.02C56.49 25.14 56.43 25.25 56.32 25.31C56.32 25.37 56.26 25.42 56.21 25.48L50.22 35.34C50.11 35.51 49.93 35.68 49.76 35.8C49.54 35.97 49.25 36.03 49.02 36.03C48.79 36.03 48.51 35.97 48.34 35.8C48.11 35.68 47.94 35.51 47.77 35.29L46.8 33.46C46.8 33.46 46.8 33.46 46.74 33.4C46.74 33.4 46.69 33.29 46.63 33.23C46.57 33.18 46.51 33.06 46.46 32.95C46.4 32.89 46.34 32.78 46.23 32.66C46 32.26 45.6 31.69 45.2 31.01C44.41 29.76 43.38 28.05 42.35 26.34C41.33 24.68 40.3 22.97 39.56 21.66C39.16 20.98 38.82 20.41 38.53 20.01C38.48 19.89 38.42 19.78 38.36 19.72C38.31 19.61 38.25 19.55 38.25 19.5C38.19 19.38 38.14 19.32 38.14 19.27C38.14 19.27 38.08 19.27 38.08 19.21C38.08 19.21 38.08 19.21 38.08 19.15C37.51 18.18 37.11 17.16 36.77 16.13C36.48 15.05 36.37 13.97 36.37 12.83C36.37 11.74 36.48 10.6 36.82 9.58C37.11 8.49 37.51 7.47 38.08 6.5C38.65 5.53 39.28 4.67 40.07 3.88C40.87 3.08 41.73 2.39 42.7 1.88C43.66 1.31 44.69 0.86 45.77 0.57C46.8 0.29 47.94 0.17 49.02 0.17C50.16 0.17 51.25 0.29 52.33 0.57C53.36 0.86 54.44 1.31 55.35 1.88C56.32 2.39 57.23 3.08 58.03 3.88C58.77 4.67 59.45 5.53 60.02 6.5C60.59 7.47 60.99 8.49 61.28 9.58C61.56 10.6 61.73 11.74 61.73 12.83C61.73 13.97 61.56 15.05 61.28 16.13ZM48.97 31.58C48.97 31.64 49.02 31.69 49.02 31.69C49.02 31.75 49.08 31.75 49.08 31.75L53.87 23.88C53.93 23.77 53.98 23.71 54.04 23.66C54.04 23.6 54.04 23.6 54.1 23.6C54.1 23.54 54.15 23.49 54.21 23.37C54.32 23.2 54.5 22.97 54.67 22.74C54.95 22.17 55.35 21.55 55.75 20.86C56.15 20.18 56.55 19.55 56.83 18.98C57 18.7 57.17 18.41 57.29 18.24C57.35 18.13 57.4 18.01 57.4 17.96C57.46 17.9 57.46 17.84 57.52 17.84C57.52 17.79 57.52 17.79 57.52 17.73C57.97 16.99 58.31 16.19 58.54 15.39C58.77 14.54 58.88 13.68 58.88 12.83C58.88 11.97 58.77 11.12 58.54 10.32C58.31 9.46 57.97 8.66 57.52 7.92C57.12 7.18 56.6 6.5 55.98 5.87C55.41 5.3 54.72 4.79 53.93 4.33C53.18 3.88 52.39 3.59 51.59 3.36C50.73 3.14 49.88 3.02 49.02 3.02C48.17 3.02 47.31 3.14 46.51 3.36C45.66 3.59 44.86 3.88 44.12 4.33C43.38 4.79 42.7 5.3 42.07 5.87C41.5 6.5 40.99 7.18 40.53 7.92C40.07 8.66 39.79 9.46 39.56 10.32C39.33 11.12 39.22 11.97 39.22 12.83C39.22 13.68 39.33 14.54 39.56 15.39C39.79 16.19 40.07 16.99 40.53 17.73C40.53 17.79 40.53 17.79 40.53 17.79C40.59 17.79 40.59 17.84 40.59 17.84C40.64 17.9 40.64 17.96 40.7 18.01C40.76 18.07 40.76 18.18 40.81 18.24C40.87 18.36 40.93 18.41 40.99 18.53C41.27 18.98 41.61 19.55 41.95 20.18C42.75 21.49 43.78 23.2 44.8 24.85C45.83 26.56 46.8 28.22 47.65 29.53C48.05 30.15 48.4 30.72 48.62 31.12C48.68 31.24 48.74 31.29 48.79 31.41C48.85 31.47 48.91 31.52 48.97 31.58ZM47.14 18.64C46.51 18.47 45.94 18.24 45.37 17.9C44.8 17.61 44.29 17.21 43.84 16.76C43.38 16.3 42.98 15.79 42.64 15.22C42.35 14.65 42.07 14.08 41.9 13.45C41.78 12.83 41.67 12.2 41.67 11.51C41.67 10.89 41.78 10.26 41.9 9.63C42.07 9.01 42.35 8.44 42.64 7.87C42.98 7.3 43.38 6.78 43.84 6.33C44.29 5.87 44.8 5.47 45.37 5.13C45.94 4.85 46.51 4.56 47.14 4.45C47.77 4.28 48.4 4.16 49.02 4.16C49.71 4.16 50.33 4.28 50.96 4.45C51.59 4.56 52.16 4.85 52.73 5.13C53.3 5.47 53.81 5.87 54.27 6.33C54.72 6.78 55.12 7.3 55.41 7.87C55.75 8.44 55.98 9.01 56.15 9.63C56.32 10.26 56.43 10.89 56.43 11.51C56.43 12.2 56.32 12.83 56.15 13.45C55.98 14.08 55.75 14.65 55.41 15.22C55.12 15.79 54.72 16.3 54.27 16.76C53.81 17.21 53.3 17.61 52.73 17.9C52.16 18.24 51.59 18.47 50.96 18.64C50.33 18.81 49.71 18.93 49.02 18.93C48.4 18.93 47.77 18.81 47.14 18.64ZM53.41 10.37C53.3 9.98 53.13 9.63 52.96 9.29C52.79 8.95 52.5 8.61 52.21 8.32C51.99 8.04 51.64 7.81 51.3 7.64C50.96 7.41 50.62 7.3 50.22 7.18C49.82 7.07 49.42 7.01 49.02 7.01C48.62 7.01 48.22 7.07 47.88 7.18C47.48 7.3 47.14 7.41 46.8 7.64C46.46 7.81 46.12 8.04 45.83 8.32C45.55 8.61 45.32 8.95 45.15 9.29C44.92 9.63 44.8 9.98 44.69 10.37C44.58 10.77 44.52 11.12 44.52 11.51C44.52 11.91 44.58 12.31 44.69 12.71C44.8 13.11 44.92 13.45 45.15 13.79C45.32 14.14 45.55 14.48 45.83 14.71C46.12 14.99 46.46 15.28 46.8 15.45C47.14 15.68 47.48 15.79 47.88 15.9C48.22 16.02 48.62 16.07 49.02 16.07C49.42 16.07 49.82 16.02 50.22 15.9C50.62 15.79 50.96 15.68 51.3 15.45C51.64 15.28 51.99 14.99 52.21 14.71C52.5 14.48 52.79 14.14 52.96 13.79C53.13 13.45 53.3 13.11 53.41 12.71C53.53 12.31 53.58 11.91 53.58 11.51C53.58 11.12 53.53 10.77 53.41 10.37ZM60.37 24.28C60.94 23.26 61.39 22.23 61.68 21.15C61.68 21.15 61.73 21.15 61.79 21.15C61.96 21.32 62.13 21.49 62.3 21.72C62.42 21.89 62.48 22.17 62.48 22.4L62.02 62.82C62.02 63.1 61.96 63.33 61.79 63.56C61.68 63.73 61.51 63.9 61.28 64.07C61.22 64.07 61.11 64.13 61.05 64.19L44.58 69.71C44.41 69.77 44.29 69.77 44.12 69.77C43.95 69.77 43.84 69.77 43.72 69.71C43.55 69.71 43.38 69.66 43.21 69.6L26.51 63.16L9.58 69.77C9.41 69.83 9.23 69.89 9.06 69.89C8.84 69.89 8.55 69.83 8.38 69.71C8.15 69.54 7.98 69.37 7.81 69.2C7.7 68.97 7.64 68.69 7.64 68.46L7.7 28.44C7.7 28.22 7.75 27.93 7.87 27.76C8.04 27.53 8.21 27.36 8.44 27.19C8.49 27.19 8.55 27.13 8.66 27.08L25.54 21.15C25.65 21.09 25.82 21.09 25.99 21.09C26.05 21.09 26.05 21.09 26.11 21.09C26.34 20.98 26.56 20.92 26.79 20.92C26.96 20.92 27.13 20.92 27.25 20.98L37 24.4C37.05 24.45 37.05 24.51 37.11 24.57C37.17 24.63 37.17 24.74 37.22 24.8C37.28 24.91 37.34 25.02 37.39 25.14C37.68 25.54 38.02 26.11 38.42 26.79C38.65 27.25 38.99 27.7 39.28 28.27L28.22 24.34L28.22 60.77L42.3 66.18L42.24 33.18C42.92 34.26 43.55 35.29 44.06 36.14C44.52 36.82 44.86 37.39 45.15 37.79C45.2 37.91 45.26 38.02 45.32 38.14C45.37 38.25 45.43 38.31 45.49 38.36C45.55 38.42 45.55 38.48 45.6 38.48L45.55 66.35L59.17 61.79L59.57 25.59C59.63 25.59 59.63 25.54 59.68 25.48C59.85 25.2 59.97 24.91 60.08 24.74C60.14 24.63 60.2 24.57 60.25 24.45C60.25 24.45 60.31 24.4 60.31 24.34C60.31 24.34 60.31 24.28 60.37 24.28ZM56.21 25.48L56.26 25.37L55.64 24.97L55.12 24.57L56.21 25.48ZM24.57 24.51L10.55 29.47L10.49 66.35L24.74 60.77L24.57 24.51Z" />
								</g>
							</g>
						</g>
					</g>
				</g>
			</g>
		</g>
	</g>
</svg>